<svg width="371" height="123" viewBox="0 0 371 123" xmlns="http://www.w3.org/2000/svg"><title>Artboard</title><g fill-rule="nonzero" fill="none"><path d="M.07 61.5V14A13.84 13.84 0 0 1 12.21 0a40.166 40.166 0 0 1 5.48-.36c28.32 0 56.63.05 85 0 7.18 0 13.27 2 16.83 8.49a19.64 19.64 0 0 1 2.48 8.96c.18 29.65.14 59.3.1 89 0 9.4-6.49 16.71-16 17-15.14.49-30.3.34-45.46.33-15.48 0-31 .12-46.46-.34C5 122.77.07 117 .07 108V61.5zm60 8.86c1.157.11 2.323.11 3.48 0 5.22-1 7.86 1.32 9.36 6.22a60.26 60.26 0 0 0 5.45 12.79c.9 1.53 3.9 1.81 6 2.66.68-1.95 2.45-4.33 1.87-5.77-7-17.59-14.32-35-21.76-52.46a5.57 5.57 0 0 0-4-2.9 5.4 5.4 0 0 0-4.21 2.61c-7.53 17.55-14.91 35.16-22 52.89-.56 1.4 1.38 3.8 2.15 5.73 1.93-.8 4.66-1.06 5.61-2.5 2-3 3-6.62 4.43-10 3.78-9.27 3.78-9.27 13.6-9.27h.02zM309-.3h41.46c13.82 0 20.45 6.56 20.45 20.36v83.44c0 13.1-6.61 19.81-20 19.87-22.81.1-45.62 0-68.43 0-6.66 0-13.33.07-20-.35-8.474-.607-15.115-7.528-15.37-16.02a7652.5 7652.5 0 0 1 0-90.91c.163-8.783 7.218-15.877 16-16.09 15.32-.31 30.64-.09 45.95-.09L309-.3zm-19.83 48.46l12.24 28.54c-4.21 1.93-9.27 4.32-14.39 6.6-2.92 1.3-5.74 2.77-4.12 6.6 1.49 3.48 4.57 3 7.26 1.75 6.48-2.93 12.85-6.1 18.69-8.91 6.88 3.17 13.55 6.54 20.5 9.18 1.49.56 4-1.56 6-2.45-1-1.84-1.69-4-3.09-5.45-1-1.09-3-1.23-4.52-2-4.06-2-8.07-4.09-10.92-5.54 4.18-10 7.93-18.86 11.92-28.37 2.3-.09 6.9.48 6.7-4.48-.21-5.21-5-4.34-8.52-4.41-4.3-.09-8.6 0-13.1 0-.9-3.6.6-8.65-5.06-8.48-5.32.15-3.47 5.11-4.87 8.48-4.2 0-8.49-.07-12.78 0-3.56.08-8.3-.86-8.57 4.36-.23 5.08 4.46 4.33 6.63 4.58zM160.45 30.9c2.14-.17 4.29-.48 6.43-.46 2.62 0 5.57.65 5.05 3.91-.27 1.68-2.6 4.13-4.22 4.32-6.92.81-13.92 1-20.9 1.21-4 .13-5.42-2.36-4.66-5.9 1.45-6.8 3-13.61 5-20.27.45-1.51 2.92-2.41 4.46-3.59 1.13 1.72 3 3.36 3.2 5.2.29 2.32-.76 4.8-1.51 8.64 3.47-2.83 6-4.83 8.42-6.87 18.67-15.45 41.27-14.14 58 3.37.91 1 2.25 1.9 2.48 3 .39 1.87 0 3.88 0 5.83-2.06-.21-4.59.24-6.1-.79-3.39-2.32-6-5.72-9.41-8.07-11.29-7.89-25.08-7.64-36.25.51-3.68 2.68-7.07 5.76-10.6 8.65l.61 1.31zM210.28 96.08c-3.91 0-6.48.46-8.75-.16-1.71-.46-3-2.31-4.53-3.54 1.29-1.45 2.45-4 3.88-4.17 7.26-.79 14.58-1 21.89-1.3 3.51-.13 4.9 2.08 4.25 5.2-1.47 7.13-3 14.27-5.07 21.26-.39 1.35-3.45 3.07-4.71 2.7-1.26-.37-2.88-3-3-4.71-.1-2.54 1-5.12 1.88-8.92-3.63 3-6.37 5.21-9.14 7.44-19.39 15.66-43.26 13.35-59.26-5.69-1.9-2.25-3.07-4.55-.47-6.94 2.43-2.23 4.41-1 6.39 1 17.15 17.71 32.68 18.4 51.35 2.35 1.42-1.14 2.78-2.34 5.29-4.52z" fill="#FFF"/><path d="M60.05 70.36c-9.82 0-9.82 0-13.7 9.24-1.42 3.37-2.46 7-4.43 10-1 1.44-3.68 1.7-5.61 2.5-.77-1.93-2.71-4.33-2.15-5.73 7.09-17.73 14.47-35.34 22-52.89a5.4 5.4 0 0 1 4.21-2.61 5.57 5.57 0 0 1 4 2.9c7.44 17.41 14.74 34.87 21.76 52.46.58 1.44-1.19 3.82-1.87 5.77-2.05-.85-5.05-1.13-6-2.66a60.26 60.26 0 0 1-5.45-12.79c-1.5-4.9-4.14-7.23-9.36-6.22a18.35 18.35 0 0 1-3.4.03zm.15-23.86l-6.06 14.64h12.17c-2.03-4.88-3.85-9.21-6.11-14.64zM289.17 48.16c-2.16-.25-6.86.5-6.6-4.55.27-5.22 5-4.28 8.57-4.36 4.29-.09 8.58 0 12.78 0 1.4-3.37-.45-8.33 4.87-8.48 5.66-.17 4.16 4.88 5.06 8.48 4.5 0 8.8-.07 13.1 0 3.57.07 8.31-.8 8.52 4.41.2 5-4.4 4.39-6.7 4.48-4 9.51-7.74 18.42-11.92 28.37 2.85 1.45 6.86 3.54 10.92 5.54 1.49.74 3.48.88 4.52 2 1.4 1.47 2.09 3.61 3.09 5.45-2 .89-4.54 3-6 2.45-7-2.64-13.62-6-20.5-9.18-5.84 2.81-12.21 6-18.69 8.91-2.69 1.22-5.77 1.73-7.26-1.75-1.62-3.83 1.2-5.3 4.12-6.6 5.12-2.28 10.18-4.67 14.39-6.6l-12.27-28.57zm10.77.22c.6 8.19 3.76 14.8 9.18 21 5-6.47 8.55-12.85 8.76-21h-17.94z" fill="#000"/><path d="M60.2 46.5c2.26 5.43 4.08 9.76 6.11 14.64H54.14L60.2 46.5zM299.94 48.38h17.94c-.21 8.13-3.75 14.51-8.76 21-5.42-6.2-8.58-12.81-9.18-21z" fill="#FFF"/></g></svg>