<svg width="389" height="227" viewBox="0 0 389 227" xmlns="http://www.w3.org/2000/svg" xmlns:xlink="http://www.w3.org/1999/xlink"><title>logo</title><defs><path id="a" d="M.393.891h52.056V47.94H.393z"/><path id="c" d="M.393.891h52.056V47.94H.393z"/></defs><g fill="none" fill-rule="evenodd"><path d="M31.303 214.746c-2.727.667-5.766 1.441-10.658 1.441-9.576 0-20.645-4.841-20.645-18.43 0-12.512 8.753-18.741 20.594-18.741 3.656 0 7.208.823 10.658 1.851l-.772 7.776c-3.089-1.7-6.075-2.522-9.371-2.522-6.796 0-11.224 4.942-11.224 11.636 0 7.052 4.995 11.325 11.997 11.325 3.141 0 6.332-.823 8.959-1.853l.462 7.517M34.976 184.369h9.268v-6.794h-9.268v6.794zm0 31.2h9.268v-26.826h-9.268v26.826z" fill="#FFF" fill-rule="nonzero"/><g transform="translate(47 179)"><mask id="b" fill="#fff"><use xlink:href="#a"/></mask><path d="M.393 9.743H5.85V3.72L14.964.891v8.852h6.486v6.491h-6.486v9.885c0 3.244.773 4.887 3.706 4.887.928 0 1.906-.202 2.832-.359l.309 6.024c-1.752.209-3.501.516-5.819.516-8.289 0-10.296-3.656-10.296-10.039V16.234H.393V9.743" fill="#FFF" fill-rule="nonzero" mask="url(#b)"/></g><g transform="translate(47 179)"><mask id="d" fill="#fff"><use xlink:href="#c"/></mask><path d="M24.338 40.329c1.236.408 2.368.566 3.655.566 2.266 0 4.016-1.339 4.686-3.708L21.816 9.743h9.987l5.766 17.51h.103l5.509-17.51h9.268l-9.835 24.971C39.99 41.46 37.981 48 29.486 48a27.07 27.07 0 0 1-5.766-.618l.618-7.053" fill="#FFF" fill-rule="nonzero" mask="url(#d)"/></g><path d="M136.169 202.183c0-4.015-1.749-7.57-6.024-7.57-4.272 0-6.023 3.555-6.023 7.57 0 3.965 1.751 7.516 6.023 7.516 4.275 0 6.024-3.551 6.024-7.516zm-21.623 0c0-8.909 6.744-14.054 15.599-14.054 8.857 0 15.602 5.145 15.602 14.054 0 8.856-6.745 14.004-15.602 14.004-8.855 0-15.599-5.148-15.599-14.004zM152.147 195.234h-5.457v-6.491h5.612v-1.645c0-7.981 3.758-10.761 11.172-10.761 2.009 0 3.552.308 4.736.517l-.566 6.382c-.771-.255-1.544-.412-2.934-.412-2.368 0-3.296 1.651-3.296 4.274v1.645h6.591v6.491h-6.591v20.335h-9.267v-20.335M194.373 196.211h2.472c3.293 0 5.92-1.183 5.92-4.942 0-3.656-2.627-4.841-5.92-4.841h-2.472v9.783zm-9.576-16.578h11.43c10.964 0 16.117 3.704 16.117 11.789 0 7.259-5.306 11.587-14.265 11.587h-3.706v12.56h-9.576v-35.936zM214.976 176.954h9.268v15.755h.104c2.006-2.779 4.943-4.58 8.957-4.58 7.311 0 10.245 5.145 10.245 10.705v16.735h-9.268v-12.974c0-5.044-1.751-6.743-4.272-6.743-3.81 0-5.766 2.623-5.766 8.392v11.325h-9.268v-38.615M268.334 202.183c0-4.015-1.751-7.57-6.024-7.57-4.276 0-6.027 3.555-6.027 7.57 0 3.965 1.751 7.516 6.027 7.516 4.273 0 6.024-3.551 6.024-7.516zm-21.625 0c0-8.909 6.742-14.054 15.601-14.054 8.856 0 15.599 5.145 15.599 14.054 0 8.856-6.743 14.004-15.599 14.004-8.859 0-15.601-5.148-15.601-14.004zM299.345 199.608c0-3.089-1.445-5.611-5.153-5.611-3.345 0-4.938 2.522-5.144 5.611h10.297zm-10.196 5.25c.516 3.711 3.345 5.148 7.879 5.148 2.522 0 5.403-.562 8.187-2.055v6.537c-2.986 1.183-6.387 1.699-9.836 1.699-8.857 0-15.602-5.201-15.602-14.053 0-8.86 6.024-14.005 14.366-14.005 9.938 0 13.541 7.053 13.541 15.034v1.695h-18.535zM311.192 188.743h8.445v4.946h.104c1.853-3.861 5.56-5.56 9.781-5.56 7.314 0 10.247 5.145 10.247 10.705v16.735h-9.267v-12.974c0-5.044-1.751-6.743-4.273-6.743-3.812 0-5.766 2.623-5.766 8.392v11.325h-9.271v-26.826M345.297 184.369h9.267v-6.794h-9.267v6.794zm0 31.2h9.267v-26.826h-9.267v26.826zM366.775 201.925l-8.392-13.182h10.963l3.965 8.033 4.172-8.033h10.143l-8.392 13.08 8.957 13.746h-11.172l-4.482-8.34-4.426 8.34h-10.45l9.114-13.644" fill="#FFF" fill-rule="nonzero"/><g fill="#FFF" fill-rule="nonzero"><path d="M177.158 67.813s-8.542-1.863-15.482-7.742c-6.26-5.3-11.042-13.947-10.063-26.061C153.677 8.464 178.965.466 178.965.466s-34.319 3.097-36.125 35.866c-1.678 30.442 30.447 33.544 34.318 31.481"/><path d="M193.35 23.109c-4.322-2.645-4.983 2.419-2.903 2.773 3.031.516 8.385 2.968 8.385 2.968-.515-1.161-2.028-3.627-5.482-5.741zm-11.289 2.644c4.193-16.515 18.32-6.708 27.352 0 9.029 6.71 23.223 12.128 23.223 12.128-12.901 0-8.775 11.869-7.484 23.997 1.29 12.127-7.997 24.254-7.997 24.254 14.965-6.191 23.478-18.061 24.252-38.188.777-20.126-19.61-34.318-19.61-34.318 33.546 13.159 31.222 52.897 31.222 52.897 6.968-52.036-43.09-66.315-43.09-66.315 8.774-.516 27.094 7.74 41.288 21.933 14.19 14.191 19.609 32.512 19.609 46.446 0 13.934-1.81 50.315-43.094 69.925-41.285 19.613-67.861-2.061-67.861-2.061 48.252 17.028 73.539-17.033 73.539-17.033-3.097 3.613-19.352 12.388-30.448 15.227-11.096 2.834-41.544 6.448-65.283-21.417-23.739-27.87-13.934-57.8-13.934-57.8 4.645 35.866 35.436 44.812 35.436 44.812-27.609-17.547-32.598-44.296-28.727-61.327 2.294-10.096 9.289-16.256 9.289-16.256-4.129 7.225-7.224 22.449 4.387 36.124 11.612 13.676 25.546 14.966 35.092 12.387 9.83-2.657 18.32-20.128 4.904-29.674-13.418-9.547-22.967 5.417-22.967 5.417 0-20.642 20.902-21.158 20.902-21.158z"/></g></g></svg>